<?xml version="1.0" encoding="UTF-8" standalone="no"?>
<!-- Created with Inkscape (http://www.inkscape.org/) -->

<svg
   xmlns:dc="http://purl.org/dc/elements/1.1/"
   xmlns:cc="http://creativecommons.org/ns#"
   xmlns:rdf="http://www.w3.org/1999/02/22-rdf-syntax-ns#"
   xmlns:svg="http://www.w3.org/2000/svg"
   xmlns="http://www.w3.org/2000/svg"
   xmlns:sodipodi="http://sodipodi.sourceforge.net/DTD/sodipodi-0.dtd"
   xmlns:inkscape="http://www.inkscape.org/namespaces/inkscape"
   width="166.92923"
   height="284.19009"
   id="svg6928"
   sodipodi:version="0.32"
   inkscape:version="0.48.3.1 r9886"
   version="1.0"
   sodipodi:docname="California_Presidential_Election_Results_by_County,_1964.svg"
   inkscape:output_extension="org.inkscape.output.svg.inkscape">
  <defs
     id="defs6930">
    <inkscape:perspective
       sodipodi:type="inkscape:persp3d"
       inkscape:vp_x="0 : 526.18109 : 1"
       inkscape:vp_y="0 : 1000 : 0"
       inkscape:vp_z="744.09448 : 526.18109 : 1"
       inkscape:persp3d-origin="372.04724 : 350.78739 : 1"
       id="perspective6936" />
    <inkscape:perspective
       id="perspective6945"
       inkscape:persp3d-origin="372.04724 : 350.78739 : 1"
       inkscape:vp_z="744.09448 : 526.18109 : 1"
       inkscape:vp_y="0 : 1000 : 0"
       inkscape:vp_x="0 : 526.18109 : 1"
       sodipodi:type="inkscape:persp3d" />
    <inkscape:perspective
       id="perspective7539"
       inkscape:persp3d-origin="372.04724 : 350.78739 : 1"
       inkscape:vp_z="744.09448 : 526.18109 : 1"
       inkscape:vp_y="0 : 1000 : 0"
       inkscape:vp_x="0 : 526.18109 : 1"
       sodipodi:type="inkscape:persp3d" />
  </defs>
  <sodipodi:namedview
     id="base"
     pagecolor="#ffffff"
     bordercolor="#666666"
     borderopacity="1.0"
     gridtolerance="10000"
     guidetolerance="10"
     objecttolerance="10"
     inkscape:pageopacity="0.0"
     inkscape:pageshadow="2"
     inkscape:zoom="1.4142136"
     inkscape:cx="75.63125"
     inkscape:cy="192.91544"
     inkscape:document-units="px"
     inkscape:current-layer="layer1"
     showgrid="false"
     showguides="true"
     inkscape:guide-bbox="true"
     inkscape:window-width="786"
     inkscape:window-height="721"
     inkscape:window-x="1160"
     inkscape:window-y="51"
     inkscape:window-maximized="0" />
  <metadata
     id="metadata6933">
    <rdf:RDF>
      <cc:Work
         rdf:about="">
        <dc:format>image/svg+xml</dc:format>
        <dc:type
           rdf:resource="http://purl.org/dc/dcmitype/StillImage" />
        <dc:title></dc:title>
      </cc:Work>
    </rdf:RDF>
  </metadata>
  <g
     inkscape:label="Layer 1"
     inkscape:groupmode="layer"
     id="layer1"
     transform="translate(-465.02819,-589.98964)">
    <path
       style="font-size:12px;fill:#4389e3;fill-opacity:1;fill-rule:nonzero;stroke:#ffffff;stroke-width:0.72731787000000003;stroke-miterlimit:4;stroke-dasharray:none"
       d="M 488.25725,604.46041 L 494.71584,606.49326 L 499.78887,607.89517 L 499.23066,608.82795 L 498.46152,609.82984 L 497.27236,609.94438 L 495.60862,611.42629 L 494.28126,617.56486 L 494.43764,618.10671 L 494.59401,619.61408 L 494.49401,619.90136 L 493.67576,620.85051 L 493.22302,621.16326 L 492.26477,620.88325 L 491.58473,619.97409 L 491.94658,618.7613 L 490.02827,618.13762 L 487.01354,617.25393 L 487.30628,615.29563 L 487.37174,613.95918 L 487.3972,611.33719 L 487.38992,611.11536 L 487.34811,610.83717 L 487.25719,610.53351 L 487.65903,606.67327 L 488.25725,604.46041"
       id="CA_Del_Norte"
       inkscape:label="Del Norte, CA" />
    <path
       style="font-size:12px;fill:#4389e3;fill-opacity:1;fill-rule:nonzero;stroke:#ffffff;stroke-width:0.72731787000000003;stroke-miterlimit:4;stroke-dasharray:none"
       d="M 499.78887,607.89517 L 504.59098,609.23888 L 504.63281,609.24797 L 505.88562,609.50799 L 507.673,610.15712 L 508.40941,610.37713 L 508.84398,610.50078 L 514.52434,612.10634 L 516.7772,612.66455 L 518.83369,613.22095 L 519.36645,613.39369 L 520.30106,613.68098 L 534.30739,617.85215 L 533.85463,618.88494 L 533.6928,619.45042 L 532.79819,622.74518 L 532.82366,622.81791 L 532.90548,622.867 L 530.77444,630.78386 L 529.24161,636.3824 L 519.85922,633.77495 L 514.99891,632.36578 L 511.45868,631.4148 L 511.88417,629.03103 L 509.81131,627.75276 L 506.13108,629.20195 L 503.56548,631.85847 L 503.72184,632.94763 L 503.50911,633.32584 L 503.11636,633.63677 L 502.77997,633.58767 L 501.40352,632.88945 L 499.04337,630.39838 L 497.74875,628.45644 L 496.94506,627.67821 L 496.10865,627.00545 L 496.23957,622.42516 L 495.91227,621.95786 L 493.22302,621.16326 L 493.67576,620.85051 L 494.49401,619.90136 L 494.59401,619.61408 L 494.43764,618.10671 L 494.28126,617.56486 L 495.60862,611.42629 L 497.27236,609.94438 L 498.46152,609.82984 L 499.23066,608.82795 L 499.78887,607.89517"
       id="CA_Siskiyou"
       inkscape:label="Siskiyou, CA" />
    <path
       style="font-size:12px;fill:#86b6f2;fill-opacity:1;fill-rule:nonzero;stroke:#ffffff;stroke-width:0.72731787000000003;stroke-miterlimit:4;stroke-dasharray:none"
       d="M 582.21581,837.83671 L 594.002,840.30233 L 603.67168,842.19698 L 606.17912,842.62973 L 610.07027,843.40797 L 608.1047,843.89345 L 606.95007,851.00662 L 606.96462,851.04662 L 607.37374,852.13579 L 608.27743,852.76855 L 608.59563,852.90855 L 610.30119,853.19403 L 610.35937,853.25949 L 610.41575,853.31767 L 610.9976,854.67594 L 610.8085,856.21786 L 610.63576,856.81607 L 610.63576,856.82516 L 609.78479,858.0216 L 607.06463,859.70897 L 605.00632,859.55442 L 604.89176,859.54533 L 590.40359,857.82522 L 590.11631,857.79067 L 588.46893,857.5943 L 582.34674,856.86516 L 579.74111,856.56151 L 577.82281,856.33967 L 578.70833,852.46489 L 580.55935,845.94267 L 581.13392,843.26068 L 582.21581,837.83671"
       id="CA_Imperial"
       inkscape:label="Imperial, CA" />
    <path
       style="font-size:12px;fill:#86b6f2;fill-opacity:1;fill-rule:nonzero;stroke:#ffffff;stroke-width:0.72731787000000003;stroke-miterlimit:4;stroke-dasharray:none"
       d="M 616.66886,829.19072 L 614.90693,831.68178 L 614.35781,832.63275 L 613.85778,834.4274 L 613.7505,835.18928 L 613.1941,837.96763 L 612.43042,840.62234 L 610.07027,843.40797 L 606.17912,842.62973 L 603.67168,842.19698 L 594.002,840.30233 L 582.21581,837.83671 L 578.12647,836.90938 L 572.08609,835.59838 L 567.92402,834.68924 L 560.25264,832.84731 L 560.34355,832.45274 L 558.30159,830.63263 L 555.5487,830.00168 L 555.6887,829.32892 L 558.19614,826.87967 L 557.26154,825.58323 L 556.17237,825.17411 L 555.60507,823.65038 L 554.38499,820.87748 L 555.02503,819.7174 L 557.42518,817.64274 L 560.13808,818.25732 L 560.87631,818.43006 L 561.03996,818.82281 L 563.54738,819.75741 L 569.13682,821.00113 L 571.58606,821.09386 L 576.34817,821.93027 L 590.14903,824.84682 L 599.76963,826.88694 L 601.11516,826.44509 L 603.58987,826.56692 L 616.66886,829.19072"
       id="CA_Riverside"
       inkscape:label="Riverside, CA" />
    <path
       style="font-size:12px;fill:#e27f90;fill-opacity:1;fill-rule:nonzero;stroke:#ffffff;stroke-width:0.72731787000000003;stroke-miterlimit:4;stroke-dasharray:none"
       d="M 555.5487,830.00168 L 558.30159,830.63263 L 560.34355,832.45274 L 560.25264,832.84731 L 567.92402,834.68924 L 572.08609,835.59838 L 578.12647,836.90938 L 582.21581,837.83671 L 581.13392,843.26068 L 580.55935,845.94267 L 578.70833,852.46489 L 577.82281,856.33967 L 575.98815,856.11785 L 572.25155,855.66873 L 568.44768,855.22689 L 563.08008,854.59411 L 557.92521,853.96498 L 557.81066,853.9559 L 556.91787,850.04656 L 557.2779,844.25348 L 557.2779,844.0571 L 557.287,844.0571 L 557.30153,842.79339 L 557.31063,842.30244 L 557.08152,840.29506 L 556.98334,839.58409 L 556.60695,838.46584 L 556.57241,838.36947 L 555.51597,835.70567 L 555.20504,834.96017 L 555.14686,834.8438 L 554.72137,833.94374 L 554.09043,833.03459 L 553.70495,832.6182 L 553.28674,832.33637 L 555.5487,830.00168"
       id="CA_San_Diego"
       inkscape:label="San Diego, CA" />
    <path
       style="font-size:12px;fill:#e27f90;fill-opacity:1;fill-rule:nonzero;stroke:#ffffff;stroke-width:0.72731787000000003;stroke-miterlimit:4;stroke-dasharray:none"
       d="M 552.72125,818.66825 L 554.38499,820.87748 L 555.60507,823.65038 L 556.17237,825.17411 L 557.26154,825.58323 L 558.19614,826.87967 L 555.6887,829.32892 L 555.5487,830.00168 L 553.28674,832.33637 L 553.1631,831.83816 L 552.83581,831.17448 L 552.63216,830.8781 L 549.03375,826.36328 L 546.14085,822.82305 L 545.43535,821.95209 L 545.93538,821.06839 L 546.98453,819.74831 L 549.05011,817.97184 L 549.92653,818.02821 L 550.14837,818.07731 L 552.72125,818.66825"
       id="CA_Orange"
       inkscape:label="Orange, CA" />
    <path
       id="CA_Los_Angeles"
       style="font-size:12px;fill:#86b6f2;fill-opacity:1;fill-rule:nonzero;stroke:#ffffff;stroke-width:0.72731787000000003;stroke-miterlimit:4;stroke-dasharray:none"
       d="M 535.75657,841.9406 L 534.29829,841.88423 L 533.37278,840.74417 L 533.24914,840.54778 L 532.79819,839.11315 L 532.38909,836.54936 L 532.90548,836.7221 L 535.59292,841.40784 L 535.81474,841.88423 L 535.75657,841.9406 M 534.76559,825.9778 L 534.68377,825.9178 L 534.66741,825.74869 L 534.68377,825.71597 L 534.77286,825.7396 L 535.77474,826.07598 L 536.89664,826.97785 L 537.80578,827.70699 L 538.49491,828.28885 L 539.38043,830.1235 L 539.45315,830.3126 L 539.50225,830.70536 L 539.41315,830.9181 L 539.14222,831.07629 L 539.12586,831.08358 L 538.96949,831.08358 L 536.60934,829.96895 L 536.45298,829.82894 L 534.76559,825.9778 M 559.58168,799.04885 L 558.33434,804.45646 L 557.75429,807.58029 L 557.31791,810.235 L 557.14517,811.38235 L 555.88509,814.10979 L 554.79592,815.9299 L 554.36135,816.65175 L 552.99946,817.31362 L 552.50851,817.91365 L 552.47579,818.07731 L 552.56488,818.44641 L 552.72125,818.66825 L 550.14837,818.07731 L 549.92653,818.02821 L 549.05011,817.97184 L 546.98453,819.74831 L 545.93538,821.06839 L 545.43535,821.95209 L 543.97707,822.15028 L 542.44425,822.11756 L 541.73876,821.83935 L 541.38783,821.64116 L 540.01865,820.75747 L 539.77318,820.55382 L 539.62589,819.7265 L 539.76409,819.57921 L 540.20775,819.25011 L 540.43685,819.20101 L 540.55141,818.96463 L 540.67323,818.37369 L 540.52776,817.2918 L 540.43685,816.76632 L 540.38777,816.47175 L 540.2823,815.86444 L 540.09319,815.12621 L 539.82953,814.41526 L 539.80591,814.36435 L 539.77318,814.28979 L 539.76409,814.27526 L 539.56044,813.87341 L 539.51861,813.81704 L 539.36407,813.5952 L 539.31315,813.52248 L 539.25678,813.47156 L 538.92767,813.16063 L 538.45309,812.97335 L 536.57662,812.57878 L 535.10198,812.3824 L 534.32375,812.44787 L 531.42175,811.16051 L 531.66722,810.50411 L 533.53642,809.69315 L 535.04379,809.0622 L 537.30575,809.62041 L 538.45309,807.79121 L 538.57674,806.93298 L 536.79845,794.38492 L 536.71663,793.70488 L 559.58168,799.04885"
       inkscape:label="Los Angeles, CA" />
    <path
       style="font-size:12px;fill:#86b6f2;fill-opacity:1;fill-rule:nonzero;stroke:#ffffff;stroke-width:0.72731787000000003;stroke-miterlimit:4;stroke-dasharray:none"
       d="M 527.02148,789.2646 L 528.10336,789.65736 L 529.96348,790.52469 L 530.21804,791.132 L 530.30713,791.77021 L 535.03652,793.95035 L 536.79845,794.38492 L 538.57674,806.93298 L 538.45309,807.79121 L 537.30575,809.62041 L 535.04379,809.0622 L 533.53642,809.69315 L 531.66722,810.50411 L 531.42175,811.16051 L 528.84886,809.21857 L 526.02142,804.30008 L 524.08675,801.80902 L 523.63581,801.23626 L 523.39762,801.12898 L 523.93947,800.75259 L 524.09585,800.6144 L 524.45586,799.46524 L 527.02148,789.2646"
       id="CA_Ventura"
       inkscape:label="Ventura, CA" />
    <path
       id="CA_Santa_Barbara"
       style="font-size:12px;fill:#86b6f2;fill-opacity:1;fill-rule:nonzero;stroke:#ffffff;stroke-width:0.72731787000000003;stroke-miterlimit:4;stroke-dasharray:none"
       d="M 506.72203,806.02384 L 510.1477,806.30021 L 511.68053,807.70211 L 511.62961,808.48034 L 511.61506,808.62763 L 511.53324,808.65308 L 508.7367,808.98037 L 508.48396,808.99493 L 507.73846,808.23487 L 507.59845,807.98941 L 506.72203,806.02384 M 516.29353,807.0948 L 517.0154,807.60393 L 518.91734,808.23487 L 518.9828,808.19488 L 519.0137,808.17668 L 519.0628,808.15306 L 519.13735,808.11305 L 519.23554,808.05487 L 519.29373,808.03123 L 519.81012,808.06395 L 520.43198,808.52398 L 520.5629,808.71854 L 520.55562,808.72764 L 520.54835,808.74399 L 520.53016,808.75854 L 519.89922,809.2513 L 519.71921,809.39858 L 519.58828,809.41677 L 516.36809,809.47314 L 515.66987,809.30767 L 514.98982,809.03856 L 514.98255,809.03856 L 514.72799,808.9131 L 514.1534,808.64581 L 513.63882,808.2676 L 513.59701,808.12941 L 513.22063,805.99836 L 513.35154,805.8329 L 513.46609,805.86745 L 514.47524,806.26747 L 516.29353,807.0948 M 505.14013,781.82233 L 508.06576,782.14053 L 509.10763,782.54419 L 510.07315,783.53516 L 511.34414,783.32242 L 512.57331,782.63329 L 516.35899,781.54231 L 516.71174,781.96052 L 517.78635,782.96786 L 521.10475,785.63166 L 525.26683,788.90822 L 526.10323,789.12278 L 526.45599,789.12278 L 527.02148,789.2646 L 524.45586,799.46524 L 524.09585,800.6144 L 523.93947,800.75259 L 523.39762,801.12898 L 522.03026,799.87617 L 520.99747,799.42706 L 519.94831,799.27795 L 519.66284,799.28341 L 519.62102,799.28341 L 518.49914,799.22886 L 516.13716,798.48336 L 515.32621,797.66331 L 513.94066,796.66325 L 513.38427,796.44323 L 511.94236,795.90865 L 510.73683,795.58864 L 509.33493,795.29406 L 507.72937,795.09042 L 505.82016,794.76131 L 503.36183,791.5502 L 503.51638,789.68827 L 504.72191,783.50243 L 505.14013,781.82233"
       inkscape:label="Santa Barbara, CA" />
    <path
       style="font-size:12px;fill:#86b6f2;fill-opacity:1;fill-rule:nonzero;stroke:#ffffff;stroke-width:0.72731787000000003;stroke-miterlimit:4;stroke-dasharray:none"
       d="M 497.37964,759.66822 L 518.01547,765.31767 L 518.37548,765.41586 L 517.34269,769.41428 L 519.35918,772.41265 L 521.54659,776.91292 L 522.34119,779.25671 L 524.38131,779.79856 L 526.57054,782.37145 L 527.4724,785.10981 L 526.45599,789.12278 L 526.10323,789.12278 L 525.26683,788.90822 L 521.10475,785.63166 L 517.78635,782.96786 L 516.71174,781.96052 L 516.35899,781.54231 L 512.57331,782.63329 L 511.34414,783.32242 L 510.07315,783.53516 L 509.10763,782.54419 L 508.06576,782.14053 L 505.14013,781.82233 L 505.45105,781.25502 L 505.4765,781.21502 L 505.77107,780.56044 L 506.00927,779.92948 L 506.12199,779.54218 L 506.20564,779.15125 L 506.22927,779.04398 L 506.23837,779.00033 L 506.27837,778.47848 L 506.27837,778.45303 L 506.222,778.07665 L 506.14018,777.85299 L 505.96926,777.6748 L 505.40196,777.09293 L 505.32013,777.01839 L 505.15648,776.90566 L 503.46001,772.28354 L 500.32164,766.49592 L 498.25605,763.29935 L 497.93603,762.96479 L 497.74875,762.73569 L 497.45236,761.69562 L 497.37964,759.66822"
       id="CA_San_Luis_Obispo"
       inkscape:label="San Luis Obispo, CA" />
    <path
       style="font-size:12px;fill:#86b6f2;fill-opacity:1;fill-rule:nonzero;stroke:#ffffff;stroke-width:0.72731787000000003;stroke-miterlimit:4;stroke-dasharray:none"
       d="M 530.38896,768.48877 L 539.28042,770.69254 L 549.35195,773.16725 L 557.38336,775.04372 L 558.46707,775.35465 L 565.4075,776.78201 L 564.64563,778.72395 L 564.46561,779.3949 L 564.22015,782.1569 L 560.23627,799.21068 L 559.58168,799.04885 L 536.71663,793.70488 L 536.79845,794.38492 L 535.03652,793.95035 L 530.30713,791.77021 L 530.21804,791.132 L 529.96348,790.52469 L 528.10336,789.65736 L 527.02148,789.2646 L 526.45599,789.12278 L 527.4724,785.10981 L 526.57054,782.37145 L 524.38131,779.79856 L 522.34119,779.25671 L 521.54659,776.91292 L 519.35918,772.41265 L 517.34269,769.41428 L 518.37548,765.41586 L 530.38896,768.48877"
       id="CA_Kern"
       inkscape:label="Kern, CA" />
    <path
       style="font-size:12px;fill:#86b6f2;fill-opacity:1;fill-rule:nonzero;stroke:#ffffff;stroke-width:0.72731787000000003;stroke-miterlimit:4;stroke-dasharray:none"
       d="M 565.4075,776.78201 L 570.13688,777.92026 L 600.38422,784.60614 L 602.10614,784.59885 L 605.86638,790.24649 L 607.16281,792.17934 L 607.64466,792.89392 L 614.59601,803.29457 L 617.1598,807.11117 L 616.57068,809.7186 L 616.53794,810.0459 L 616.5543,810.16954 L 617.5871,812.85698 L 618.89081,814.90438 L 618.95627,815.84807 L 620.16726,820.94657 L 621.3637,822.38121 L 622.40558,823.54128 L 623.30745,825.11773 L 623.242,826.13417 L 623.20017,826.16689 L 620.74184,827.58517 L 619.08537,828.26521 L 616.66886,829.19072 L 603.58987,826.56692 L 601.11516,826.44509 L 599.76963,826.88694 L 590.14903,824.84682 L 576.34817,821.93027 L 571.58606,821.09386 L 569.13682,821.00113 L 563.54738,819.75741 L 561.03996,818.82281 L 560.87631,818.43006 L 560.13808,818.25732 L 557.42518,817.64274 L 555.02503,819.7174 L 554.38499,820.87748 L 552.72125,818.66825 L 552.56488,818.44641 L 552.47579,818.07731 L 552.50851,817.91365 L 552.99946,817.31362 L 554.36135,816.65175 L 554.79592,815.9299 L 555.88509,814.10979 L 557.14517,811.38235 L 557.31791,810.235 L 557.75429,807.58029 L 558.33434,804.45646 L 559.58168,799.04885 L 560.23627,799.21068 L 564.22015,782.1569 L 564.46561,779.3949 L 564.64563,778.72395 L 565.4075,776.78201"
       id="CA_San_Bernadino"
       inkscape:label="San Bernadino, CA" />
    <path
       style="font-size:12px;fill:#86b6f2;fill-opacity:1;fill-rule:nonzero;stroke:#ffffff;stroke-width:0.72731787000000003;stroke-miterlimit:4;stroke-dasharray:none"
       d="M 553.76131,733.55933 L 570.70964,737.56866 L 580.13567,751.72046 L 580.48661,752.24412 L 582.49401,755.22795 L 583.66681,757.00624 L 589.85447,766.26681 L 594.86933,773.7982 L 595.51664,774.76553 L 598.2059,778.79668 L 598.41864,779.10942 L 602.10614,784.59885 L 600.38422,784.60614 L 570.13688,777.92026 L 565.4075,776.78201 L 558.46707,775.35465 L 559.35985,773.40544 L 559.67077,772.30719 L 559.58895,770.758 L 559.06529,763.12844 L 557.69611,755.36613 L 557.25427,751.86774 L 557.78703,749.5585 L 557.94158,748.29661 L 557.89249,747.40928 L 557.58883,744.53456 L 557.35063,744.04907 L 555.96691,742.5508 L 555.60507,742.51807 L 554.18862,741.51801 L 554.13044,741.46163 L 553.97587,741.11616 L 553.05763,736.50133 L 553.10673,735.0776 L 553.76131,733.55933"
       id="CA_Inyo"
       inkscape:label="Inyo, CA" />
    <path
       style="font-size:12px;fill:#4389e3;fill-opacity:1;fill-rule:nonzero;stroke:#ffffff;stroke-width:0.72731787000000003;stroke-miterlimit:4;stroke-dasharray:none"
       d="M 557.25427,751.86774 L 557.69611,755.36613 L 559.06529,763.12844 L 559.58895,770.758 L 559.67077,772.30719 L 559.35985,773.40544 L 558.46707,775.35465 L 557.38336,775.04372 L 549.35195,773.16725 L 539.28042,770.69254 L 530.38896,768.48877 L 532.33271,760.9083 L 533.24186,757.84993 L 533.84008,757.6881 L 534.31466,757.80084 L 535.07652,754.77883 L 534.60922,752.51687 L 533.79826,752.3114 L 536.24024,750.82768 L 539.65862,749.60578 L 542.00241,750.22945 L 545.43535,751.12224 L 545.96083,749.19667 L 554.01588,751.09133 L 557.25427,751.86774"
       id="CA_Tulare"
       inkscape:label="Tulare, CA" />
    <path
       style="font-size:12px;fill:#4389e3;fill-opacity:1;fill-rule:nonzero;stroke:#ffffff;stroke-width:0.72731787000000003;stroke-miterlimit:4;stroke-dasharray:none"
       d="M 533.79826,752.3114 L 534.60922,752.51687 L 535.07652,754.77883 L 534.31466,757.80084 L 533.84008,757.6881 L 533.24186,757.84993 L 532.33271,760.9083 L 530.38896,768.48877 L 518.37548,765.41586 L 518.01547,765.31767 L 516.87539,762.14656 L 524.98863,757.55538 L 526.2596,752.53324 L 529.05433,753.22055 L 531.69267,753.49148 L 533.79826,752.3114"
       id="CA_Kings"
       inkscape:label="Kings, CA" />
    <path
       style="font-size:12px;fill:#4389e3;fill-opacity:1;fill-rule:nonzero;stroke:#ffffff;stroke-width:0.72731787000000003;stroke-miterlimit:4;stroke-dasharray:none"
       d="M 546.4845,725.03698 L 547.84459,725.4061 L 548.99375,725.77521 L 549.24649,726.07887 L 549.81199,727.20985 L 550.02654,729.65182 L 544.30436,733.17386 L 543.4934,733.70662 L 543.14975,734.04481 L 542.92791,734.47938 L 542.77155,735.52672 L 542.75518,735.93038 L 542.71517,736.08493 L 542.33879,736.96136 L 542.06786,737.25593 L 541.55147,737.71595 L 540.99326,738.02507 L 538.32945,737.85414 L 537.55304,737.97779 L 534.56922,739.8379 L 533.76552,740.37066 L 533.57825,740.52522 L 532.29089,741.95986 L 531.97996,742.47624 L 531.51266,742.93446 L 531.4472,742.95264 L 523.57035,742.69807 L 522.44846,742.48534 L 521.15385,741.43437 L 520.44834,740.28884 L 520.25924,739.84517 L 520.17015,739.55061 L 520.10468,739.11058 L 519.58828,735.08487 L 521.07929,734.19937 L 524.63587,733.83753 L 527.41423,734.20846 L 529.22706,734.20846 L 535.80566,730.19185 L 537.78942,730.67551 L 539.42043,729.21542 L 539.82953,727.72624 L 545.99356,723.97147 L 546.4845,725.03698"
       id="CA_Madera"
       inkscape:label="Madera, CA" />
    <path
       style="font-size:12px;fill:#4389e3;fill-opacity:1;fill-rule:nonzero;stroke:#ffffff;stroke-width:0.72731787000000003;stroke-miterlimit:4;stroke-dasharray:none"
       d="M 553.76131,733.55933 L 553.10673,735.0776 L 553.05763,736.50133 L 553.97587,741.11616 L 554.13044,741.46163 L 554.18862,741.51801 L 555.60507,742.51807 L 555.96691,742.5508 L 557.35063,744.04907 L 557.58883,744.53456 L 557.89249,747.40928 L 557.94158,748.29661 L 557.78703,749.5585 L 557.25427,751.86774 L 554.01588,751.09133 L 545.96083,749.19667 L 545.43535,751.12224 L 542.00241,750.22945 L 539.65862,749.60578 L 536.24024,750.82768 L 533.79826,752.3114 L 531.69267,753.49148 L 529.05433,753.22055 L 526.2596,752.53324 L 524.98863,757.55538 L 516.87539,762.14656 L 513.16243,757.60628 L 512.00782,755.94254 L 511.92599,754.61882 L 512.42603,752.17139 L 513.35881,751.16406 L 515.12255,747.4911 L 510.96775,740.21611 L 519.58828,735.08487 L 520.10468,739.11058 L 520.17015,739.55061 L 520.25924,739.84517 L 520.44834,740.28884 L 521.15385,741.43437 L 522.44846,742.48534 L 523.57035,742.69807 L 531.4472,742.95264 L 531.51266,742.93446 L 531.97996,742.47624 L 532.29089,741.95986 L 533.57825,740.52522 L 533.76552,740.37066 L 534.56922,739.8379 L 537.55304,737.97779 L 538.32945,737.85414 L 540.99326,738.02507 L 541.55147,737.71595 L 542.06786,737.25593 L 542.33879,736.96136 L 542.71517,736.08493 L 542.75518,735.93038 L 542.77155,735.52672 L 542.92791,734.47938 L 543.14975,734.04481 L 543.4934,733.70662 L 544.30436,733.17386 L 550.02654,729.65182 L 553.76131,733.55933"
       id="CA_Fresno"
       inkscape:label="Fresno, CA" />
    <path
       style="font-size:12px;fill:#4389e3;fill-opacity:1;fill-rule:nonzero;stroke:#ffffff;stroke-width:0.72731787000000003;stroke-miterlimit:4;stroke-dasharray:none"
       d="M 498.87973,733.15748 L 498.77972,733.63388 L 498.96883,734.35575 L 500.47801,736.86136 L 502.18902,739.94336 L 503.73821,744.14726 L 506.20564,749.12393 L 507.32753,750.4931 L 510.77865,753.40056 L 511.27686,753.59693 L 511.37687,753.58966 L 511.51505,753.50784 L 512.42603,752.17139 L 511.92599,754.61882 L 512.00782,755.94254 L 513.16243,757.60628 L 516.87539,762.14656 L 518.01547,765.31767 L 497.37964,759.66822 L 496.79779,758.81908 L 495.83045,757.0317 L 495.86318,756.16255 L 495.88682,755.74435 L 495.92864,754.98248 L 495.82136,754.30971 L 495.80499,754.21152 L 493.63395,749.5585 L 493.15028,748.70572 L 492.2175,747.65475 L 491.95385,747.41837 L 491.94658,747.41837 L 491.76475,747.39291 L 491.65019,747.32745 L 491.47018,747.10017 L 491.35562,746.84561 L 490.89559,745.78008 L 490.73195,745.3946 L 490.71558,745.0255 L 491.31562,739.05967 L 492.62661,738.59419 L 492.66661,738.60874 L 492.963,738.616 L 493.19028,738.51782 L 493.64304,738.18326 L 493.92124,737.89596 L 494.12489,737.65049 L 494.47763,737.11592 L 494.81402,736.44678 L 495.7159,734.49575 L 495.73226,734.22482 L 495.6268,733.37204 L 495.61771,733.31386 L 498.87973,733.15748"
       id="CA_Monterey"
       inkscape:label="Monterey, CA" />
    <path
       style="font-size:12px;fill:#4389e3;fill-opacity:1;fill-rule:nonzero;stroke:#ffffff;stroke-width:0.72731787000000003;stroke-miterlimit:4;stroke-dasharray:none"
       d="M 498.87973,733.15748 L 500.04162,733.32295 L 501.67445,732.40472 L 503.34546,732.75928 L 506.99114,733.73934 L 506.61475,734.1321 L 506.48384,734.31392 L 506.43474,734.44484 L 506.55838,734.78122 L 507.54936,736.9359 L 510.76956,739.87972 L 510.96775,740.21611 L 515.12255,747.4911 L 513.35881,751.16406 L 512.42603,752.17139 L 511.51505,753.50784 L 511.37687,753.58966 L 511.27686,753.59693 L 510.77865,753.40056 L 507.32753,750.4931 L 506.20564,749.12393 L 503.73821,744.14726 L 502.18902,739.94336 L 500.47801,736.86136 L 498.96883,734.35575 L 498.77972,733.63388 L 498.87973,733.15748"
       id="CA_San_Benito"
       inkscape:label="San Benito, CA" />
    <path
       style="font-size:12px;fill:#4389e3;fill-opacity:1;fill-rule:nonzero;stroke:#ffffff;stroke-width:0.72731787000000003;stroke-miterlimit:4;stroke-dasharray:none"
       d="M 525.89777,722.34954 L 526.78328,726.86437 L 526.776,727.20985 L 526.75965,727.2753 L 526.67782,727.35712 L 527.42332,731.80649 L 527.90516,732.492 L 529.22706,734.20846 L 527.41423,734.20846 L 524.63587,733.83753 L 521.07929,734.19937 L 519.58828,735.08487 L 510.96775,740.21611 L 510.76956,739.87972 L 507.54936,736.9359 L 506.55838,734.78122 L 506.43474,734.44484 L 506.48384,734.31392 L 506.61475,734.1321 L 506.99114,733.73934 L 506.7384,733.4775 L 506.59839,733.16839 L 506.58203,733.03566 L 506.84386,732.11742 L 507.31116,731.90468 L 507.69664,731.29919 L 507.95847,730.03548 L 507.86029,729.72637 L 513.85884,726.18432 L 513.89157,725.41519 L 513.78611,725.18427 L 513.64793,725.10244 L 516.31172,724.31512 L 525.89777,722.34954"
       id="CA_Merced"
       inkscape:label="Merced, CA" />
    <path
       style="font-size:12px;fill:#86b6f2;fill-opacity:1;fill-rule:nonzero;stroke:#ffffff;stroke-width:0.72731787000000003;stroke-miterlimit:4;stroke-dasharray:none"
       d="M 492.28113,721.69496 L 492.27386,721.95497 L 492.31387,722.08589 L 492.80662,723.1205 L 493.76486,725.06244 L 494.23217,725.73157 L 495.48679,726.83346 L 496.2723,727.39712 L 497.85421,729.06997 L 500.04162,732.69019 L 500.16526,732.89565 L 500.04162,733.32295 L 498.87973,733.15748 L 495.61771,733.31386 L 495.48679,732.57563 L 495.19949,731.21737 L 494.99403,730.71006 L 494.81402,730.36458 L 494.65038,730.14275 L 494.28126,729.81364 L 494.10852,729.77546 L 493.19028,729.9882 L 492.37024,729.94638 L 491.94658,729.88819 L 491.65019,729.81364 L 491.50291,729.73364 L 491.44472,729.69909 L 491.1847,729.55181 L 490.98651,729.43544 L 490.27374,728.62629 L 489.56823,727.61168 L 489.0373,726.34615 L 488.59364,725.01334 L 488.54454,724.03874 L 488.69364,723.11141 L 490.21555,722.85685 L 491.81383,723.29869 L 491.93748,722.98049 L 492.28113,721.69496"
       id="CA_Santa_Cruz"
       inkscape:label="Santa Cruz, CA" />
    <path
       style="font-size:12px;fill:#4389e3;fill-opacity:1;fill-rule:nonzero;stroke:#ffffff;stroke-width:0.72731787000000003;stroke-miterlimit:4;stroke-dasharray:none"
       d="M 490.74831,710.89247 L 490.71558,710.90155 L 490.31556,713.29443 L 490.55921,713.6781 L 493.39575,716.65464 L 493.60122,716.78374 L 494.09216,716.95648 L 494.42854,716.86738 L 494.43764,716.84375 L 494.77402,717.68744 L 492.28113,721.69496 L 491.93748,722.98049 L 491.81383,723.29869 L 490.21555,722.85685 L 488.69364,723.11141 L 488.54454,724.03874 L 488.59364,725.01334 L 488.44635,724.77515 L 487.94633,723.95509 L 487.27355,722.70048 L 487.19173,722.46955 L 487.23355,721.35676 L 487.53721,715.27637 L 488.10088,712.80168 L 488.79001,710.33607 L 490.74831,710.89247"
       id="CA_San_Mateo"
       inkscape:label="San Mateo, CA" />
    <path
       style="font-size:12px;fill:#4389e3;fill-opacity:1;fill-rule:nonzero;stroke:#ffffff;stroke-width:0.72731787000000003;stroke-miterlimit:4;stroke-dasharray:none"
       d="M 493.36302,707.02495 L 494.17399,707.04132 L 494.27218,707.09768 L 494.82311,707.86864 L 495.17405,708.96689 L 495.24859,709.5142 L 498.45243,712.80895 L 504.93465,712.63621 L 506.26201,712.48894 L 505.52559,715.14546 L 504.51644,718.8166 L 504.64736,719.09661 L 505.64742,720.62035 L 505.63106,720.60216 L 498.83063,718.66204 L 498.6088,718.63659 L 498.41971,718.7766 L 498.2797,718.84204 L 497.64147,718.92387 L 497.31418,718.88205 L 495.06677,718.11292 L 494.77402,717.68744 L 494.43764,716.84375 L 494.454,712.72895 L 493.03572,708.61414 L 493.36302,707.02495"
       id="CA_Alameda"
       inkscape:label="Alameda, CA" />
    <path
       style="font-size:12px;fill:#4389e3;fill-opacity:1;fill-rule:nonzero;stroke:#ffffff;stroke-width:0.72731787000000003;stroke-miterlimit:4;stroke-dasharray:none"
       d="M 494.77402,717.68744 L 495.06677,718.11292 L 497.31418,718.88205 L 497.64147,718.92387 L 498.2797,718.84204 L 498.41971,718.7766 L 498.6088,718.63659 L 498.83063,718.66204 L 505.63106,720.60216 L 505.34377,720.71853 L 505.27104,721.9477 L 505.79652,727.94626 L 507.86029,729.72637 L 507.95847,730.03548 L 507.69664,731.29919 L 507.31116,731.90468 L 506.84386,732.11742 L 506.58203,733.03566 L 506.59839,733.16839 L 506.7384,733.4775 L 506.99114,733.73934 L 503.34546,732.75928 L 501.67445,732.40472 L 500.04162,733.32295 L 500.16526,732.89565 L 500.04162,732.69019 L 497.85421,729.06997 L 496.2723,727.39712 L 495.48679,726.83346 L 494.23217,725.73157 L 493.76486,725.06244 L 492.80662,723.1205 L 492.31387,722.08589 L 492.27386,721.95497 L 492.28113,721.69496 L 494.77402,717.68744"
       id="CA_Santa_Clara"
       inkscape:label="Santa Clara, CA" />
    <path
       style="font-size:12px;fill:#4389e3;fill-opacity:1;fill-rule:nonzero;stroke:#ffffff;stroke-width:0.72731787000000003;stroke-miterlimit:4;stroke-dasharray:none"
       d="M 519.0228,709.66148 L 522.35936,716.54736 L 525.90686,722.34045 L 525.89777,722.34954 L 516.31172,724.31512 L 513.64793,725.10244 L 513.78611,725.18427 L 513.89157,725.41519 L 513.85884,726.18432 L 507.86029,729.72637 L 505.79652,727.94626 L 505.27104,721.9477 L 505.34377,720.71853 L 505.63106,720.60216 L 505.64742,720.62035 L 510.475,717.76744 L 511.32777,717.22013 L 511.69507,717.05467 L 513.76974,716.50555 L 514.22795,716.67101 L 515.13711,716.85102 L 516.18808,716.97284 L 517.19541,716.70919 L 517.85182,714.01448 L 519.0228,709.66148"
       id="CA_Stanislaus"
       inkscape:label="Stanislaus, CA" />
    <path
       style="font-size:12px;fill:#86b6f2;fill-opacity:1;fill-rule:nonzero;stroke:#ffffff;stroke-width:0.72731787000000003;stroke-miterlimit:4;stroke-dasharray:none"
       d="M 525.90686,722.34045 L 525.99595,721.42221 L 526.15233,721.19311 L 527.22513,720.42215 L 532.55273,719.30754 L 532.90548,719.48936 L 534.44739,721.1531 L 534.5765,721.3913 L 534.68377,721.46403 L 535.20926,721.71677 L 536.90572,722.17681 L 537.48758,722.16954 L 539.74045,721.82405 L 540.02592,721.6695 L 541.60784,720.40761 L 542.67517,720.16213 L 544.40256,721.40585 L 545.5008,722.66956 L 545.99356,723.97147 L 539.82953,727.72624 L 539.42043,729.21542 L 537.78942,730.67551 L 535.80566,730.19185 L 529.22706,734.20846 L 527.90516,732.492 L 527.42332,731.80649 L 526.67782,727.35712 L 526.75965,727.2753 L 526.776,727.20985 L 526.78328,726.86437 L 525.89777,722.34954 L 525.90686,722.34045"
       id="CA_Mariposa"
       inkscape:label="Mariposa, CA" />
    <path
       style="font-size:12px;fill:#4389e3;fill-opacity:1;fill-rule:nonzero;stroke:#ffffff;stroke-width:0.72731787000000003;stroke-miterlimit:4;stroke-dasharray:none"
       d="M 543.29703,709.90878 L 543.15884,710.02333 L 542.96065,710.71427 L 542.66609,712.86714 L 543.41886,714.06358 L 543.96071,714.5236 L 544.38619,714.80181 L 545.15714,715.22 L 545.80446,715.69458 L 546.25539,716.04733 L 546.97726,716.73465 L 547.48456,717.84199 L 548.42644,722.01316 L 547.78822,724.07692 L 546.81179,724.82425 L 546.4845,725.03698 L 545.99356,723.97147 L 545.5008,722.66956 L 544.40256,721.40585 L 542.67517,720.16213 L 541.60784,720.40761 L 540.02592,721.6695 L 539.74045,721.82405 L 537.48758,722.16954 L 536.90572,722.17681 L 535.20926,721.71677 L 534.68377,721.46403 L 534.5765,721.3913 L 534.44739,721.1531 L 532.90548,719.48936 L 532.55273,719.30754 L 527.22513,720.42215 L 526.15233,721.19311 L 525.99595,721.42221 L 525.90686,722.34045 L 522.35936,716.54736 L 525.56138,714.43269 L 526.9142,713.10352 L 529.16888,710.77792 L 531.32356,708.77779 L 534.06918,706.39583 L 534.51284,706.18854 L 534.93832,706.0558 L 537.1912,705.74669 L 539.18223,708.06684 L 539.45315,707.9341 L 540.85507,707.46681 L 541.8624,707.34315 L 542.57517,707.50863 L 542.65699,707.59044 L 542.72246,707.75409 L 543.29703,709.90878"
       id="CA_Tuolumine"
       inkscape:label="Tuolumine, CA" />
    <path
       style="font-size:12px;fill:#e27f90;fill-opacity:1;fill-rule:nonzero;stroke:#ffffff;stroke-width:0.72731787000000003;stroke-miterlimit:4;stroke-dasharray:none"
       d="M 546.49359,701.29733 L 549.992,706.53401 L 552.34487,710.03787 L 562.35821,725.10244 L 570.70964,737.56866 L 553.76131,733.55933 L 550.02654,729.65182 L 549.81199,727.20985 L 549.24649,726.07887 L 548.99375,725.77521 L 547.84459,725.4061 L 546.4845,725.03698 L 546.81179,724.82425 L 547.78822,724.07692 L 548.42644,722.01316 L 547.48456,717.84199 L 546.97726,716.73465 L 546.25539,716.04733 L 545.80446,715.69458 L 545.15714,715.22 L 544.38619,714.80181 L 543.96071,714.5236 L 543.41886,714.06358 L 542.66609,712.86714 L 542.96065,710.71427 L 543.15884,710.02333 L 543.29703,709.90878 L 545.14806,708.33413 L 546.00083,706.37764 L 545.26261,703.65566 L 545.28806,703.41746 L 545.71537,702.31921 L 546.49359,701.29733"
       id="CA_Mono"
       inkscape:label="Mono, CA" />
    <path
       style="font-size:12px;fill:#e27f90;fill-opacity:1;fill-rule:nonzero;stroke:#ffffff;stroke-width:0.72731787000000003;stroke-miterlimit:4;stroke-dasharray:none"
       d="M 542.17514,694.82056 L 546.49359,701.29733 L 545.71537,702.31921 L 545.28806,703.41746 L 545.26261,703.65566 L 546.00083,706.37764 L 545.14806,708.33413 L 543.29703,709.90878 L 542.72246,707.75409 L 542.65699,707.59044 L 542.57517,707.50863 L 541.8624,707.34315 L 540.85507,707.46681 L 539.45315,707.9341 L 539.18223,708.06684 L 537.1912,705.74669 L 536.71663,703.75385 L 537.85488,699.33721 L 540.27321,698.13349 L 540.72232,697.8062 L 542.18969,696.50067 L 542.2806,696.36066 L 542.40425,695.70789 L 542.37879,695.25695 L 542.17514,694.82056"
       id="CA_Alpine"
       inkscape:label="Alpine, CA" />
    <path
       style="font-size:12px;fill:#86b6f2;fill-opacity:1;fill-rule:nonzero;stroke:#ffffff;stroke-width:0.72731787000000003;stroke-miterlimit:4;stroke-dasharray:none"
       d="M 537.1912,705.74669 L 534.93832,706.0558 L 534.51284,706.18854 L 534.06918,706.39583 L 531.32356,708.77779 L 529.16888,710.77792 L 526.9142,713.10352 L 525.56138,714.43269 L 522.35936,716.54736 L 519.0228,709.66148 L 518.71187,705.95034 L 518.83369,706.09035 L 519.0628,706.23036 L 520.49016,706.53401 L 524.82497,705.16484 L 528.10336,703.72111 L 528.95614,703.27927 L 529.75073,703.32655 L 536.71663,703.75385 L 537.1912,705.74669"
       id="CA_Calaveras"
       inkscape:label="Calaveras, CA" />
    <path
       style="font-size:12px;fill:#4389e3;fill-opacity:1;fill-rule:nonzero;stroke:#ffffff;stroke-width:0.72731787000000003;stroke-miterlimit:4;stroke-dasharray:none"
       d="M 537.85488,699.33721 L 536.71663,703.75385 L 529.75073,703.32655 L 528.95614,703.27927 L 528.10336,703.72111 L 524.82497,705.16484 L 520.49016,706.53401 L 519.0628,706.23036 L 518.83369,706.09035 L 518.71187,705.95034 L 518.61368,704.15569 L 519.88285,699.35357 L 521.57932,699.54994 L 526.88874,701.34461 L 527.70151,701.55007 L 529.00342,701.69917 L 532.59455,701.86099 L 533.61097,701.69917 L 537.85488,699.33721"
       id="CA_Amador"
       inkscape:label="Amador, CA" />
    <path
       style="font-size:12px;fill:#4389e3;fill-opacity:1;fill-rule:nonzero;stroke:#ffffff;stroke-width:0.72731787000000003;stroke-miterlimit:4;stroke-dasharray:none"
       d="M 518.71187,705.95034 L 519.0228,709.66148 L 517.85182,714.01448 L 517.19541,716.70919 L 516.18808,716.97284 L 515.13711,716.85102 L 514.22795,716.67101 L 513.76974,716.50555 L 511.69507,717.05467 L 511.32777,717.22013 L 510.475,717.76744 L 505.64742,720.62035 L 504.64736,719.09661 L 504.51644,718.8166 L 505.52559,715.14546 L 506.26201,712.48894 L 507.54936,706.13035 L 508.34395,705.09938 L 510.32043,703.00652 L 510.73683,703.00652 L 511.05685,703.14109 L 511.27686,703.64838 L 511.61506,703.9684 L 512.49875,704.18842 L 515.74441,704.56662 L 515.86805,704.55026 L 517.12995,704.11568 L 518.61368,704.15569 L 518.71187,705.95034"
       id="CA_San_Joaquin"
       inkscape:label="San Joaquin, CA" />
    <path
       style="font-size:12px;fill:#4389e3;fill-opacity:1;fill-rule:nonzero;stroke:#ffffff;stroke-width:0.72731787000000003;stroke-miterlimit:4;stroke-dasharray:none"
       d="M 495.23224,703.50836 L 496.81414,704.46661 L 497.72329,704.73026 L 501.5908,705.67033 L 501.85264,705.6976 L 502.09084,705.68124 L 502.25631,705.57395 L 502.40358,705.39394 L 502.77997,706.42674 L 502.94361,706.64675 L 503.40365,706.83585 L 503.6073,706.88313 L 504.32007,706.8995 L 505.12375,706.67221 L 505.55833,706.39946 L 505.64742,706.23764 L 505.69833,705.90852 L 505.78743,705.76306 L 505.91834,705.6976 L 506.12199,705.6976 L 507.16388,705.88488 L 507.49118,706.0558 L 507.54936,706.13035 L 506.26201,712.48894 L 504.93465,712.63621 L 498.45243,712.80895 L 495.24859,709.5142 L 495.17405,708.96689 L 494.82311,707.86864 L 494.27218,707.09768 L 494.17399,707.04132 L 493.36302,707.02495 L 492.65934,706.50856 L 491.98658,704.97574 L 494.31399,704.46661 L 494.69948,704.28479 L 495.19949,703.89386 L 495.24859,703.73748 L 495.23224,703.50836"
       id="CA_Contra_Costa"
       inkscape:label="Contra Costa, CA" />
    <path
       style="font-size:12px;fill:#4389e3;fill-opacity:1;fill-rule:nonzero;stroke:#ffffff;stroke-width:0.72731787000000003;stroke-miterlimit:4;stroke-dasharray:none"
       d="M 541.24782,691.3058 L 542.17514,694.82056 L 542.37879,695.25695 L 542.40425,695.70789 L 542.2806,696.36066 L 542.18969,696.50067 L 540.72232,697.8062 L 540.27321,698.13349 L 537.85488,699.33721 L 533.61097,701.69917 L 532.59455,701.86099 L 529.00342,701.69917 L 527.70151,701.55007 L 526.88874,701.34461 L 521.57932,699.54994 L 519.88285,699.35357 L 519.14644,694.15689 L 521.38295,691.48581 L 521.88297,690.39665 L 522.26846,690.07663 L 524.2013,689.52751 L 526.66873,689.12566 L 527.45605,689.16748 L 527.57969,689.21658 L 528.00517,689.46751 L 528.57066,690.05118 L 528.77432,690.50938 L 528.92341,690.75848 L 529.17615,691.05124 L 530.25805,692.12403 L 530.47987,692.25676 L 530.62715,692.25676 L 531.50357,692.0913 L 531.93814,691.89674 L 532.90548,691.08579 L 536.81481,691.23307 L 537.84761,691.32216 L 538.22399,691.23307 L 538.47855,691.12397 L 538.55129,690.84759 L 538.77312,690.67484 L 541.24782,691.3058"
       id="CA_El_Dorado"
       inkscape:label="El Dorado, CA" />
    <path
       style="font-size:12px;fill:#4389e3;fill-opacity:1;fill-rule:nonzero;stroke:#ffffff;stroke-width:0.72731787000000003;stroke-miterlimit:4;stroke-dasharray:none"
       d="M 513.26971,692.00402 L 519.14644,694.15689 L 519.88285,699.35357 L 518.61368,704.15569 L 517.12995,704.11568 L 515.86805,704.55026 L 515.74441,704.56662 L 512.49875,704.18842 L 511.61506,703.9684 L 511.27686,703.64838 L 511.05685,703.14109 L 510.73683,703.00652 L 510.32043,703.00652 L 508.34395,705.09938 L 507.54936,706.13035 L 507.49118,706.0558 L 507.16388,705.88488 L 506.12199,705.6976 L 505.91834,705.6976 L 505.78743,705.76306 L 505.69833,705.90852 L 505.64742,706.23764 L 505.55833,706.39946 L 505.12375,706.67221 L 504.32007,706.8995 L 503.6073,706.88313 L 503.40365,706.83585 L 502.94361,706.64675 L 502.77997,706.42674 L 502.40358,705.39394 L 503.4691,705.84306 L 505.21285,705.67033 L 507.22024,703.60292 L 508.72034,701.08459 L 509.91677,700.56638 L 510.27134,700.35364 L 511.16413,698.50989 L 511.95873,695.2715 L 511.98417,695.02785 L 511.95873,694.92057 L 511.27686,693.71503 L 511.20414,691.40399 L 513.26971,692.00402"
       id="CA_Sacramento"
       inkscape:label="Sacramento, CA" />
    <path
       style="font-size:12px;fill:#4389e3;fill-opacity:1;fill-rule:nonzero;stroke:#ffffff;stroke-width:0.72731787000000003;stroke-miterlimit:4;stroke-dasharray:none"
       d="M 493.37939,700.64093 L 497.10144,701.71372 L 497.18144,701.50098 L 497.14144,701.39552 L 497.07598,701.38643 L 496.97779,701.24823 L 496.91233,701.05731 L 496.96142,700.85367 L 497.95239,698.00985 L 500.43619,698.70443 L 500.51802,698.50989 L 500.54346,698.30442 L 500.56711,697.8862 L 500.55075,697.68983 L 500.46892,697.15707 L 500.06707,695.94427 L 500.07435,695.82971 L 500.10707,695.67516 L 500.9344,694.1187 L 501.02531,694.01869 L 501.85264,694.15689 L 508.05666,695.39514 L 508.24577,695.70789 L 508.24577,695.78061 L 508.04938,696.61703 L 506.93478,700.57365 L 508.72034,701.08459 L 507.22024,703.60292 L 505.21285,705.67033 L 503.4691,705.84306 L 502.40358,705.39394 L 502.25631,705.57395 L 502.09084,705.68124 L 501.85264,705.6976 L 501.5908,705.67033 L 497.72329,704.73026 L 496.81414,704.46661 L 495.23224,703.50836 L 493.41211,700.77911 L 493.37939,700.64093"
       id="CA_Solano"
       inkscape:label="Solano, CA" />
    <path
       style="font-size:12px;fill:#1666cb;fill-opacity:1;fill-rule:nonzero;stroke:#ffffff;stroke-width:0.72731787000000003;stroke-miterlimit:4;stroke-dasharray:none"
       d="M 490.74831,710.89247 L 488.79001,710.33607 L 488.79001,710.3197 L 488.81365,709.95787 L 489.04457,708.62141 L 489.25731,708.49959 L 490.101,708.33413 L 490.8065,708.38322 L 491.14288,708.46687 L 491.26653,708.64869 L 491.39563,709.04872 L 491.29017,710.4488 L 491.1847,710.78701 L 490.74831,710.89247"
       id="CA_San_Francisco"
       inkscape:label="San Franciso, CA" />
    <path
       style="font-size:12px;fill:#4389e3;fill-opacity:1;fill-rule:nonzero;stroke:#ffffff;stroke-width:0.72731787000000003;stroke-miterlimit:4;stroke-dasharray:none"
       d="M 483.81515,694.41327 L 484.03698,694.29688 L 485.52072,694.33144 L 485.668,694.36963 L 489.54461,698.98445 L 491.60109,701.27914 L 490.94651,702.9847 L 490.26646,705.13938 L 490.21555,705.32121 L 490.33921,705.51577 L 490.64285,705.89216 L 490.94651,706.39583 L 491.05196,706.65584 L 491.0447,706.72858 L 489.96281,707.785 L 489.47914,707.72864 L 489.17548,707.57226 L 488.97002,707.37589 L 483.1933,700.74639 L 484.15154,695.64062 L 484.09517,695.20604 L 483.8897,694.60781 L 483.81515,694.41327"
       id="CA_Marin"
       inkscape:label="Marin, CA" />
    <path
       style="font-size:12px;fill:#4389e3;fill-opacity:1;fill-rule:nonzero;stroke:#ffffff;stroke-width:0.72731787000000003;stroke-miterlimit:4;stroke-dasharray:none"
       d="M 498.18332,684.59266 L 499.89615,685.67635 L 500.79621,690.46939 L 501.00895,691.82219 L 501.03441,692.30586 L 501.02531,694.01869 L 500.9344,694.1187 L 500.10707,695.67516 L 500.07435,695.82971 L 500.06707,695.94427 L 500.46892,697.15707 L 500.55075,697.68983 L 500.56711,697.8862 L 500.54346,698.30442 L 500.51802,698.50989 L 500.43619,698.70443 L 497.95239,698.00985 L 496.96142,700.85367 L 496.91233,701.05731 L 496.97779,701.24823 L 497.07598,701.38643 L 497.14144,701.39552 L 497.18144,701.50098 L 497.10144,701.71372 L 493.37939,700.64093 L 494.09216,700.77184 L 494.65765,699.8536 L 494.69948,699.31357 L 494.6831,698.76444 L 494.46126,696.86978 L 493.20665,692.4295 L 492.48661,690.45301 L 492.54478,688.91292 L 492.84663,687.90377 L 495.95227,687.86377 L 498.05241,686.08547 L 498.25605,685.77454 L 498.18332,684.59266"
       id="CA_Napa"
       inkscape:label="Napa, CA" />
    <path
       style="font-size:12px;fill:#4389e3;fill-opacity:1;fill-rule:nonzero;stroke:#ffffff;stroke-width:0.72731787000000003;stroke-miterlimit:4;stroke-dasharray:none"
       d="M 477.71842,680.98879 L 478.42392,680.94516 L 480.84952,680.97061 L 486.15894,681.40519 L 490.65922,682.77254 L 492.84663,687.90377 L 492.54478,688.91292 L 492.48661,690.45301 L 493.20665,692.4295 L 494.46126,696.86978 L 494.6831,698.76444 L 494.69948,699.31357 L 494.65765,699.8536 L 494.09216,700.77184 L 493.37939,700.64093 L 493.41211,700.77911 L 491.60109,701.27914 L 489.54461,698.98445 L 485.668,694.36963 L 485.52072,694.33144 L 484.03698,694.29688 L 483.81515,694.41327 L 482.65326,690.28028 L 478.85849,683.01984 L 477.71842,680.98879"
       id="CA_Sonoma"
       inkscape:label="Sonoma, CA" />
    <path
       style="font-size:12px;fill:#4389e3;fill-opacity:1;fill-rule:nonzero;stroke:#ffffff;stroke-width:0.72731787000000003;stroke-miterlimit:4;stroke-dasharray:none"
       d="M 499.52704,683.5035 L 508.3276,685.9691 L 511.20414,691.40399 L 511.27686,693.71503 L 511.95873,694.92057 L 511.98417,695.02785 L 511.95873,695.2715 L 511.16413,698.50989 L 510.27134,700.35364 L 509.91677,700.56638 L 508.72034,701.08459 L 506.93478,700.57365 L 508.04938,696.61703 L 508.24577,695.78061 L 508.24577,695.70789 L 508.05666,695.39514 L 501.85264,694.15689 L 501.02531,694.01869 L 501.03441,692.30586 L 501.00895,691.82219 L 500.79621,690.46939 L 499.89615,685.67635 L 498.18332,684.59266 L 499.52704,683.5035"
       id="CA_Yolo"
       inkscape:label="Yolo, CA" />
    <path
       style="font-size:12px;fill:#4389e3;fill-opacity:1;fill-rule:nonzero;stroke:#ffffff;stroke-width:0.72731787000000003;stroke-miterlimit:4;stroke-dasharray:none"
       d="M 516.12261,686.35639 L 518.71914,686.14366 L 519.58828,686.88734 L 519.7774,686.97826 L 522.23572,687.80557 L 522.82486,687.70739 L 523.95583,686.58551 L 524.1122,686.35639 L 524.2504,685.99638 L 524.40677,685.8309 L 525.25955,685.19087 L 526.11233,684.74903 L 527.40696,684.10353 L 529.88893,682.94709 L 530.81626,682.73435 L 531.4963,682.70527 L 542.66609,685.60181 L 541.78966,689.05111 L 541.4951,690.27301 L 541.24782,691.3058 L 538.77312,690.67484 L 538.55129,690.84759 L 538.47855,691.12397 L 538.22399,691.23307 L 537.84761,691.32216 L 536.81481,691.23307 L 532.90548,691.08579 L 531.93814,691.89674 L 531.50357,692.0913 L 530.62715,692.25676 L 530.47987,692.25676 L 530.25805,692.12403 L 529.17615,691.05124 L 528.92341,690.75848 L 528.77432,690.50938 L 528.57066,690.05118 L 528.00517,689.46751 L 527.57969,689.21658 L 527.45605,689.16748 L 526.66873,689.12566 L 524.2013,689.52751 L 522.26846,690.07663 L 521.88297,690.39665 L 521.38295,691.48581 L 519.14644,694.15689 L 513.26971,692.00402 L 514.72799,687.70739 L 515.69532,687.96195 L 516.12261,686.35639"
       id="CA_Placer"
       inkscape:label="Placer, CA" />
    <path
       style="font-size:12px;fill:#86b6f2;fill-opacity:1;fill-rule:nonzero;stroke:#ffffff;stroke-width:0.72731787000000003;stroke-miterlimit:4;stroke-dasharray:none"
       d="M 543.46067,682.65981 L 542.66609,685.60181 L 531.4963,682.70527 L 530.81626,682.73435 L 529.88893,682.94709 L 527.40696,684.10353 L 526.11233,684.74903 L 525.25955,685.19087 L 524.40677,685.8309 L 524.2504,685.99638 L 524.1122,686.35639 L 523.95583,686.58551 L 522.82486,687.70739 L 522.23572,687.80557 L 519.7774,686.97826 L 519.58828,686.88734 L 518.71914,686.14366 L 519.94104,681.66884 L 520.41562,680.91425 L 522.01389,679.8069 L 523.51217,679.01958 L 524.4886,678.91412 L 524.91589,678.97958 L 525.40683,679.21596 L 525.6523,678.93048 L 526.06142,678.82503 L 529.01251,679.0614 L 531.32356,678.48681 L 531.38175,678.4159 L 531.64359,678.19226 L 532.26544,677.89041 L 532.54545,677.85042 L 533.84008,678.2668 L 534.2092,678.72683 L 534.34011,679.83236 L 534.72377,680.28329 L 534.9547,680.41421 L 543.46067,682.65981"
       id="CA_Nevada"
       inkscape:label="Nevada, CA" />
    <path
       style="font-size:12px;fill:#4389e3;fill-opacity:1;fill-rule:nonzero;stroke:#ffffff;stroke-width:0.72731787000000003;stroke-miterlimit:4;stroke-dasharray:none"
       d="M 527.15967,673.61379 L 528.83977,672.54463 L 529.0707,671.69549 L 529.53618,671.36638 L 530.38896,671.12091 L 533.71643,673.72834 L 537.33121,674.6284 L 542.5188,676.00667 L 545.13351,676.32487 L 543.46067,682.65981 L 534.9547,680.41421 L 534.72377,680.28329 L 534.34011,679.83236 L 534.2092,678.72683 L 533.84008,678.2668 L 532.54545,677.85042 L 532.26544,677.89041 L 531.64359,678.19226 L 531.38175,678.4159 L 531.32356,678.48681 L 529.01251,679.0614 L 526.06142,678.82503 L 525.6523,678.93048 L 525.40683,679.21596 L 527.15967,673.61379"
       id="CA_Sierra"
       inkscape:label="Sierra, CA" />
    <path
       style="font-size:12px;fill:#86b6f2;fill-opacity:1;fill-rule:nonzero;stroke:#ffffff;stroke-width:0.72731787000000003;stroke-miterlimit:4;stroke-dasharray:none"
       d="M 525.73595,674.2611 L 527.15967,673.61379 L 525.40683,679.21596 L 524.91589,678.97958 L 524.4886,678.91412 L 523.51217,679.01958 L 522.01389,679.8069 L 520.41562,680.91425 L 519.94104,681.66884 L 518.71914,686.14366 L 516.12261,686.35639 L 515.35167,686.11639 L 514.95709,686.12729 L 513.72974,686.29822 L 513.29335,686.64188 L 513.04061,686.9128 L 513.01515,684.47265 L 513.82793,679.61054 L 513.93339,679.2596 L 514.24432,678.60138 L 514.35888,678.53591 L 516.63719,678.66138 L 518.44822,678.53045 L 519.16099,678.16862 L 525.73595,674.2611"
       id="CA_Yuba"
       inkscape:label="Yuba, CA" />
    <path
       style="font-size:12px;fill:#e27f90;fill-opacity:1;fill-rule:nonzero;stroke:#ffffff;stroke-width:0.72731787000000003;stroke-miterlimit:4;stroke-dasharray:none"
       d="M 514.35888,678.53591 L 514.24432,678.60138 L 513.93339,679.2596 L 513.82793,679.61054 L 513.01515,684.47265 L 513.04061,686.9128 L 513.29335,686.64188 L 513.72974,686.29822 L 514.95709,686.12729 L 515.35167,686.11639 L 516.12261,686.35639 L 515.69532,687.96195 L 514.72799,687.70739 L 513.26971,692.00402 L 511.20414,691.40399 L 508.3276,685.9691 L 509.01672,684.60174 L 508.39487,681.8143 L 507.86756,680.73424 L 508.04029,679.60325 L 509.47493,676.98127 L 514.35888,678.53591"
       id="CA_Sutter"
       inkscape:label="Sutter, CA" />
    <path
       style="font-size:12px;fill:#4389e3;fill-opacity:1;fill-rule:nonzero;stroke:#ffffff;stroke-width:0.72731787000000003;stroke-miterlimit:4;stroke-dasharray:none"
       d="M 510.30408,675.25389 L 509.47493,676.98127 L 508.04029,679.60325 L 507.86756,680.73424 L 508.39487,681.8143 L 509.01672,684.60174 L 508.3276,685.9691 L 499.52704,683.5035 L 498.6579,682.4707 L 498.57607,682.28342 L 497.95239,679.90509 L 498.01786,678.25954 L 496.28139,675.29207 L 495.65044,674.66113 L 494.65765,673.18649 L 494.51037,672.481 L 494.87039,671.87368 L 495.59225,671.09 L 510.30408,675.25389"
       id="CA_Colusa"
       inkscape:label="Colusa, CA" />
    <path
       style="font-size:12px;fill:#86b6f2;fill-opacity:1;fill-rule:nonzero;stroke:#ffffff;stroke-width:0.72731787000000003;stroke-miterlimit:4;stroke-dasharray:none"
       d="M 495.59225,671.09 L 494.87039,671.87368 L 494.51037,672.481 L 494.65765,673.18649 L 495.65044,674.66113 L 496.28139,675.29207 L 498.01786,678.25954 L 497.95239,679.90509 L 498.57607,682.28342 L 498.6579,682.4707 L 499.52704,683.5035 L 498.18332,684.59266 L 498.25605,685.77454 L 498.05241,686.08547 L 495.95227,687.86377 L 492.84663,687.90377 L 490.65922,682.77254 L 489.16822,681.07971 L 488.71727,680.35604 L 487.70994,677.71041 L 487.40629,676.3667 L 487.44629,676.1685 L 487.54448,675.83393 L 487.94633,674.89024 L 488.34816,674.13565 L 489.1264,673.89744 L 489.88826,673.04648 L 490.04463,672.0646 L 489.94644,668.84076 L 490.14282,668.18799 L 490.28284,667.83342 L 490.79013,666.7261 L 491.5429,666.57154 L 493.06118,667.07338 L 493.94487,667.02247 L 494.25762,666.2206 L 494.36308,665.8824 L 496.95234,666.62245 L 496.35412,668.94077 L 496.15047,669.58626 L 495.59225,671.09"
       id="CA_Lake"
       inkscape:label="Lake, CA" />
    <path
       style="font-size:12px;fill:#86b6f2;fill-opacity:1;fill-rule:nonzero;stroke:#ffffff;stroke-width:0.72731787000000003;stroke-miterlimit:4;stroke-dasharray:none"
       d="M 510.23862,665.07327 L 510.00769,664.67142 L 510.11497,663.98955 L 510.84411,663.15496 L 514.96618,664.26775 L 515.4753,664.3023 L 516.02261,664.01502 L 516.16262,663.59135 L 516.30262,663.30951 L 516.57173,663.02405 L 517.32634,662.4731 L 520.49743,660.50753 L 521.37567,660.74572 L 522.49756,660.53298 L 522.71757,660.40206 L 522.96487,659.92748 L 523.51217,660.08204 L 523.72673,661.19484 L 523.75037,661.75488 L 523.66128,662.07489 L 523.2776,662.45855 L 521.81752,666.68791 L 524.39767,671.38456 L 525.73595,674.2611 L 519.16099,678.16862 L 518.44822,678.53045 L 516.63719,678.66138 L 514.35888,678.53591 L 509.47493,676.98127 L 510.30408,675.25389 L 511.82781,672.02278 L 511.85145,671.93005 L 511.1314,667.2443 L 510.23862,665.07327"
       id="CA_Butte"
       inkscape:label="Butte, CA" />
    <path
       style="font-size:12px;fill:#86b6f2;fill-opacity:1;fill-rule:nonzero;stroke:#ffffff;stroke-width:0.72731787000000003;stroke-miterlimit:4;stroke-dasharray:none"
       d="M 494.90494,660.67299 L 510.23862,665.07327 L 511.1314,667.2443 L 511.85145,671.93005 L 511.82781,672.02278 L 510.30408,675.25389 L 495.59225,671.09 L 496.15047,669.58626 L 496.35412,668.94077 L 496.95234,666.62245 L 494.36308,665.8824 L 494.90494,660.67299"
       id="CA_Glenn"
       inkscape:label="Glenn, CA" />
    <path
       style="font-size:12px;fill:#1666cb;fill-opacity:1;fill-rule:nonzero;stroke:#ffffff;stroke-width:0.72731787000000003;stroke-miterlimit:4;stroke-dasharray:none"
       d="M 523.75945,652.94342 L 526.66145,653.7471 L 531.22537,654.95809 L 530.05439,659.29472 L 530.26713,659.8784 L 531.94724,661.37667 L 532.59455,661.5494 L 532.96185,661.46576 L 533.11094,660.91846 L 534.88924,659.49291 L 535.51837,659.30381 L 536.17477,659.47655 L 539.19132,661.73669 L 543.17339,666.40789 L 543.68251,667.07338 L 544.55893,670.87362 L 544.54256,671.58821 L 544.36983,672.25006 L 543.4934,674.84296 L 542.5188,676.00667 L 537.33121,674.6284 L 533.71643,673.72834 L 530.38896,671.12091 L 529.53618,671.36638 L 529.0707,671.69549 L 528.83977,672.54463 L 527.15967,673.61379 L 525.73595,674.2611 L 524.39767,671.38456 L 521.81752,666.68791 L 523.2776,662.45855 L 523.66128,662.07489 L 523.75037,661.75488 L 523.72673,661.19484 L 523.51217,660.08204 L 522.96487,659.92748 L 524.51405,658.86924 L 524.57951,658.80378 L 524.71043,658.59831 L 525.25045,656.98368 L 525.03771,655.8836 L 524.88317,655.85451 L 523.66128,655.26174 L 523.60309,655.20538 L 523.53762,654.97627 L 523.54489,654.8199 L 523.66854,653.25435 L 523.75945,652.94342"
       id="CA_Plumas"
       inkscape:label="Plumas, CA" />
    <path
       style="font-size:12px;fill:#4389e3;fill-opacity:1;fill-rule:nonzero;stroke:#ffffff;stroke-width:0.72731787000000003;stroke-miterlimit:4;stroke-dasharray:none"
       d="M 523.75945,652.94342 L 523.66854,653.25435 L 523.54489,654.8199 L 523.53762,654.97627 L 523.60309,655.20538 L 523.66128,655.26174 L 524.88317,655.85451 L 525.03771,655.8836 L 525.25045,656.98368 L 524.71043,658.59831 L 524.57951,658.80378 L 524.51405,658.86924 L 522.96487,659.92748 L 522.71757,660.40206 L 522.49756,660.53298 L 521.37567,660.74572 L 520.49743,660.50753 L 517.32634,662.4731 L 516.57173,663.02405 L 516.30262,663.30951 L 516.16262,663.59135 L 516.02261,664.01502 L 515.4753,664.3023 L 514.96618,664.26775 L 510.84411,663.15496 L 510.11497,663.98955 L 510.00769,664.67142 L 510.23862,665.07327 L 494.90494,660.67299 L 494.83039,660.55662 L 494.83039,659.502 L 495.36315,658.4183 L 495.99409,658.04919 L 496.1832,657.62189 L 496.23957,656.86185 L 496.15774,656.61092 L 496.10138,656.1727 L 496.48685,652.96887 L 496.82142,651.78698 L 496.91233,651.70515 L 497.13416,650.65782 L 497.14872,650.41598 L 497.05961,650.21415 L 495.95227,648.95408 L 497.46147,648.77953 L 499.91979,648.72315 L 501.88537,648.74679 L 506.00927,649.30501 L 507.12205,650.0596 L 508.81853,650.60145 L 509.41857,650.76146 L 511.68053,650.91239 L 513.36789,650.85419 L 514.88437,650.93602 L 517.69544,651.33605 L 520.1865,651.83062 L 523.75945,652.94342"
       id="CA_Tehama"
       inkscape:label="Tehama, CA" />
    <path
       style="font-size:12px;fill:#4389e3;fill-opacity:1;fill-rule:nonzero;stroke:#ffffff;stroke-width:0.72731787000000003;stroke-miterlimit:4;stroke-dasharray:none"
       d="M 477.66205,650.54327 L 485.86437,652.99251 L 485.69346,653.55073 L 496.15774,656.61092 L 496.23957,656.86185 L 496.1832,657.62189 L 495.99409,658.04919 L 495.36315,658.4183 L 494.83039,659.502 L 494.83039,660.55662 L 494.90494,660.67299 L 494.36308,665.8824 L 494.25762,666.2206 L 493.94487,667.02247 L 493.06118,667.07338 L 491.5429,666.57154 L 490.79013,666.7261 L 490.28284,667.83342 L 490.14282,668.18799 L 489.94644,668.84076 L 490.04463,672.0646 L 489.88826,673.04648 L 489.1264,673.89744 L 488.34816,674.13565 L 487.94633,674.89024 L 487.54448,675.83393 L 487.44629,676.1685 L 487.40629,676.3667 L 487.70994,677.71041 L 488.71727,680.35604 L 489.16822,681.07971 L 490.65922,682.77254 L 486.15894,681.40519 L 480.84952,680.97061 L 478.42392,680.94516 L 477.71842,680.98879 L 476.882,679.49051 L 475.6292,676.78126 L 476.62926,666.45881 L 476.68562,666.05696 L 476.72563,665.87513 L 477.06383,665.03326 L 477.45659,664.17139 L 477.86569,663.57498 L 478.0948,663.23679 L 478.40755,662.91131 L 478.5221,662.75494 L 478.58756,662.66402 L 478.60392,662.64584 L 479.01304,662.01489 L 479.04577,661.85124 L 479.39851,659.49291 L 479.45488,658.90924 L 479.44761,655.25628 L 479.43125,655.19628 L 478.64393,653.0998 L 478.21117,651.96881 L 477.66205,650.54327"
       id="CA_Mendocino"
       inkscape:label="Mendocino, CA" />
    <path
       style="font-size:12px;fill:#4389e3;fill-opacity:1;fill-rule:nonzero;stroke:#ffffff;stroke-width:0.72731787000000003;stroke-miterlimit:4;stroke-dasharray:none"
       d="M 493.22302,621.16326 L 495.91227,621.95786 L 496.23957,622.42516 L 496.10865,627.00545 L 495.82136,627.28546 L 495.51952,627.69458 L 494.97767,628.76738 L 494.94494,629.53106 L 495.03403,629.68561 L 494.94494,630.82568 L 493.65941,632.13667 L 493.09209,632.6367 L 491.19925,634.16044 L 490.66649,636.87333 L 485.86437,652.99251 L 477.66205,650.54327 L 477.26747,649.84868 L 473.78544,643.20099 L 473.67816,642.90642 L 474.12001,638.66071 L 474.17819,638.55343 L 475.6692,636.40602 L 476.71836,635.05322 L 477.12019,634.60227 L 477.84206,633.83314 L 478.91485,632.79125 L 480.17675,631.44754 L 480.87497,630.71113 L 481.40591,630.07109 L 482.10413,629.06375 L 482.86418,627.7273 L 483.23512,626.87452 L 483.14421,626.35085 L 485.34798,621.11416 L 487.01354,617.25393 L 490.02827,618.13762 L 491.94658,618.7613 L 491.58473,619.97409 L 492.26477,620.88325 L 493.22302,621.16326"
       id="CA_Humboldt"
       inkscape:label="Humboldt, CA" />
    <path
       style="font-size:12px;fill:#4389e3;fill-opacity:1;fill-rule:nonzero;stroke:#ffffff;stroke-width:0.72731787000000003;stroke-miterlimit:4;stroke-dasharray:none"
       d="M 496.10865,627.00545 L 496.94506,627.67821 L 497.74875,628.45644 L 499.04337,630.39838 L 501.40352,632.88945 L 502.77997,633.58767 L 503.11636,633.63677 L 503.50911,633.32584 L 503.72184,632.94763 L 503.56548,631.85847 L 506.13108,629.20195 L 509.81131,627.75276 L 511.88417,629.03103 L 511.45868,631.4148 L 511.80417,631.66028 L 512.08964,631.97121 L 512.13873,632.19304 L 511.88417,633.12036 L 511.76234,633.32584 L 511.5987,633.56221 L 509.62221,635.31687 L 508.9749,635.55325 L 508.86036,635.5696 L 504.15641,641.28997 L 501.13987,645.09384 L 498.33788,646.38847 L 496.20683,648.11766 L 495.95227,648.95408 L 497.05961,650.21415 L 497.14872,650.41598 L 497.13416,650.65782 L 496.91233,651.70515 L 496.82142,651.78698 L 496.48685,652.96887 L 496.10138,656.1727 L 496.15774,656.61092 L 485.69346,653.55073 L 485.86437,652.99251 L 490.66649,636.87333 L 491.19925,634.16044 L 493.09209,632.6367 L 493.65941,632.13667 L 494.94494,630.82568 L 495.03403,629.68561 L 494.94494,629.53106 L 494.97767,628.76738 L 495.51952,627.69458 L 495.82136,627.28546 L 496.10865,627.00545"
       id="CA_Trinity"
       inkscape:label="Trinity, CA" />
    <path
       style="font-size:12px;fill:#4389e3;fill-opacity:1;fill-rule:nonzero;stroke:#ffffff;stroke-width:0.72731787000000003;stroke-miterlimit:4;stroke-dasharray:none"
       d="M 529.24161,636.3824 L 531.18355,636.89696 L 529.56163,642.88825 L 529.52891,643.67558 L 527.34149,651.59242 L 526.66145,653.7471 L 523.75945,652.94342 L 520.1865,651.83062 L 517.69544,651.33605 L 514.88437,650.93602 L 513.36789,650.85419 L 511.68053,650.91239 L 509.41857,650.76146 L 508.81853,650.60145 L 507.12205,650.0596 L 506.00927,649.30501 L 501.88537,648.74679 L 499.91979,648.72315 L 497.46147,648.77953 L 495.95227,648.95408 L 496.20683,648.11766 L 498.33788,646.38847 L 501.13987,645.09384 L 504.15641,641.28997 L 508.86036,635.5696 L 508.9749,635.55325 L 509.62221,635.31687 L 511.5987,633.56221 L 511.76234,633.32584 L 511.88417,633.12036 L 512.13873,632.19304 L 512.08964,631.97121 L 511.80417,631.66028 L 511.45868,631.4148 L 514.99891,632.36578 L 519.85922,633.77495 L 529.24161,636.3824"
       id="CA_Shasta"
       inkscape:label="Shasta, CA" />
    <path
       style="font-size:12px;fill:#4389e3;fill-opacity:1;fill-rule:nonzero;stroke:#ffffff;stroke-width:0.72731787000000003;stroke-miterlimit:4;stroke-dasharray:none"
       d="M 553.78677,642.89734 L 551.91757,650.17416 L 549.81199,658.55831 L 548.75555,662.64584 L 548.41917,663.96592 L 548.41007,663.98955 L 547.26273,668.35165 L 545.49354,674.98842 L 545.13351,676.32487 L 542.5188,676.00667 L 543.4934,674.84296 L 544.36983,672.25006 L 544.54256,671.58821 L 544.55893,670.87362 L 543.68251,667.07338 L 543.17339,666.40789 L 539.19132,661.73669 L 536.17477,659.47655 L 535.51837,659.30381 L 534.88924,659.49291 L 533.11094,660.91846 L 532.96185,661.46576 L 532.59455,661.5494 L 531.94724,661.37667 L 530.26713,659.8784 L 530.05439,659.29472 L 531.22537,654.95809 L 526.66145,653.7471 L 527.34149,651.59242 L 529.52891,643.67558 L 529.56163,642.88825 L 531.18355,636.89696 L 553.78677,642.89734"
       id="CA_Lassen"
       inkscape:label="Lassen, CA" />
    <path
       style="font-size:12px;fill:#86b6f2;fill-opacity:1;fill-rule:nonzero;stroke:#ffffff;stroke-width:0.72731787000000003;stroke-miterlimit:4;stroke-dasharray:none"
       d="M 534.30739,617.85215 L 543.79706,620.50685 L 546.91179,621.34327 L 546.93544,621.35236 L 553.08128,622.98338 L 553.74496,623.1543 L 558.58161,624.37619 L 553.78677,642.89734 L 531.18355,636.89696 L 529.24161,636.3824 L 530.77444,630.78386 L 532.90548,622.867 L 532.82366,622.81791 L 532.79819,622.74518 L 533.6928,619.45042 L 533.85463,618.88494 L 534.30739,617.85215"
       id="CA_Modoc"
       inkscape:label="Modoc, CA" />
  </g>
</svg>
